<svg xmlns="http://www.w3.org/2000/svg" viewBox="0 0 512 512"><path d="M256 73.82C155.383 73.82 73.82 155.4 73.82 256a182.18 182.18 0 1 0 364.36 0c0-100.608-81.571-182.18-182.18-182.18zm-.843 247.816a10.843 10.843 0 0 1-17.535 8.544l-35.578-27.862a21.463 21.463 0 0 1-5.142.65h-35.64a21.17 21.17 0 0 1-21.173-21.163v-61.753a21.165 21.165 0 0 1 21.174-21.163h35.639a21.221 21.221 0 0 1 5.968.861l34.751-27.238a10.841 10.841 0 0 1 17.535 8.534v140.59zm35.604-44.543-11.891-11.892a22.556 22.556 0 0 0-.88-27.826l11.795-11.803a39.166 39.166 0 0 1 .976 51.521zm15.408 15.416a60.93 60.93 0 0 0-.976-82.335l11.803-11.804a77.614 77.614 0 0 1 .993 105.952zm40.174 39.823-11.795-11.803a100.723 100.723 0 0 0-1.001-138.375l11.803-11.795a117.4 117.4 0 0 1 .993 161.974z" data-name="Volume"/></svg>